<svg xmlns="http://www.w3.org/2000/svg" version="1.1" xmlns:xlink="http://www.w3.org/1999/xlink" xmlns:svgjs="http://svgjs.dev/svgjs" width="400" height="400"><svg id="SvgjsSvg1094" xmlns="http://www.w3.org/2000/svg" xmlns:xlink="http://www.w3.org/1999/xlink" width="400" height="400" viewBox="0, 0, 400,400">
    <g id="SvgjsG1093">
        <path id="SvgjsPath1092" d="M0.000 200.000 
            M209.900 24.246 C 273.525 28.098,329.295 64.837,357.534 121.500 C 396.890 200.472,371.729 296.227,298.587 345.830 C 270.349 364.979,235.589 375.872,202.500 375.940 L 197.950 375.949 196.750 375.681 C 181.024 372.166,179.488 350.407,194.580 344.942 C 196.746 344.157,197.488 344.072,203.700 343.896 C 290.387 341.443,355.265 264.047,342.344 178.500 C 331.913 109.436,273.648 58.030,203.618 56.104 C 197.640 55.940,196.700 55.831,194.580 55.060 C 183.557 51.051,180.419 36.983,188.701 28.701 C 191.278 26.124,194.594 24.500,198.100 24.099 C 199.211 23.972,206.966 24.068,209.900 24.246 M159.860 29.500 C 174.975 30.838,180.017 50.281,167.450 58.772 C 158.870 64.569,146.784 60.508,143.491 50.721 C 140.141 40.765,146.902 30.301,157.200 29.504 C 158.623 29.394,158.664 29.394,159.860 29.500 M123.000 45.711 C 136.031 48.239,140.504 64.636,130.565 73.446 C 122.067 80.979,108.475 77.337,104.834 66.550 C 100.941 55.015,111.069 43.396,123.000 45.711 M87.950 70.899 C 101.686 71.976,107.856 88.454,98.155 98.155 C 89.161 107.149,73.804 102.561,71.191 90.100 C 69.229 80.739,76.060 71.637,85.600 70.902 C 86.123 70.862,86.595 70.824,86.650 70.817 C 86.705 70.810,87.290 70.847,87.950 70.899 M64.550 104.294 C 77.607 107.028,81.928 123.307,71.927 132.085 C 63.424 139.547,49.775 135.805,46.270 125.050 C 42.471 113.391,52.674 101.807,64.550 104.294 M299.315 136.344 C 310.504 138.771,315.581 151.523,309.171 161.100 C 308.080 162.731,178.731 292.080,177.100 293.171 C 171.451 296.952,164.546 296.952,158.900 293.171 C 157.276 292.083,107.915 242.723,106.829 241.100 C 100.930 232.289,104.707 220.517,114.580 216.942 C 118.624 215.477,123.336 215.760,127.202 217.700 C 129.559 218.883,128.380 217.765,149.076 238.441 L 168.001 257.348 226.926 198.440 C 282.499 142.881,285.910 139.492,286.900 138.829 C 290.637 136.327,295.111 135.431,299.315 136.344 M48.600 142.899 C 61.635 145.651,65.943 161.928,55.950 170.667 C 47.516 178.042,34.043 174.496,30.366 163.932 C 26.292 152.227,36.578 140.360,48.600 142.899 M43.315 184.344 C 55.729 187.037,60.261 202.337,51.299 211.299 C 43.614 218.984,30.570 216.905,25.709 207.220 C 19.720 195.285,30.311 181.522,43.315 184.344 M48.707 225.742 C 62.542 228.739,66.076 246.585,54.431 254.655 C 45.825 260.619,33.526 256.442,30.270 246.450 C 26.453 234.734,36.762 223.155,48.707 225.742 M64.550 264.295 C 78.401 267.173,82.113 285.087,70.530 293.153 C 61.833 299.209,49.675 295.173,46.285 285.104 C 42.384 273.514,52.646 261.822,64.550 264.295 M90.000 297.452 C 102.037 299.908,106.985 314.460,98.913 323.664 C 90.765 332.954,75.500 329.865,71.669 318.150 C 67.864 306.519,78.054 295.014,90.000 297.452 M122.800 322.811 C 135.899 325.095,140.583 341.821,130.576 350.579 C 120.216 359.646,104.056 352.317,104.056 338.550 C 104.056 328.529,112.917 321.089,122.800 322.811 M161.500 338.812 C 174.617 341.306,179.146 357.787,169.132 366.580 C 158.833 375.624,142.670 368.311,142.653 354.600 C 142.640 344.487,151.650 336.940,161.500 338.812 " stroke="none" fill="#00aaff">
        </path>
    </g>
</svg><style>@media (prefers-color-scheme: light) { :root { filter: none; } }
@media (prefers-color-scheme: dark) { :root { filter: contrast(1) brightness(1); } }
</style></svg>